<svg width="15" height="19" viewBox="0 0 15 19" fill="none" xmlns="http://www.w3.org/2000/svg">
<path opacity="0.6" d="M14 6.51507C14 7.85219 11.0899 8.93614 7.5 8.93614C3.91015 8.93614 1 7.85219 1 6.51507M14 6.51507C14 9.56324 12.3196 12.1729 9.9375 13.2503V15.2018C9.9375 15.8132 9.58975 16.3721 9.03922 16.6455L7.41422 17.4525C6.33376 17.9891 5.0625 17.2087 5.0625 16.0089V13.2503C2.68039 12.1729 1 9.56324 1 6.51507M14 6.51507C14 5.75049 13.0485 5.0687 11.5625 4.625M1 6.51507C1 5.75049 1.9515 5.0687 3.4375 4.625M9.125 3.8125V5.4375M5.875 5.4375V6.25M5.875 1.375V3" stroke="#28303F" stroke-width="1.5" stroke-linecap="round" stroke-linejoin="round"/>
</svg>
