<svg width="20" height="12" viewBox="0 0 20 12" fill="none" xmlns="http://www.w3.org/2000/svg">
<path d="M10.0058 12C10.2936 12 10.5814 11.8773 10.7772 11.6441L19.6891 1.91411C19.8848 1.70552 20 1.43557 20 1.12883C20 0.490793 19.5509 -3.41839e-06 18.9522 -3.31371e-06C18.6643 -3.26338e-06 18.3995 0.122698 18.2037 0.319017L9.38398 9.92635L10.616 9.92635L1.79619 0.31902C1.61197 0.122701 1.34714 -2.35542e-07 1.04779 -1.83201e-07C0.449049 -7.85142e-08 8.58135e-08 0.490796 1.97372e-07 1.12884C2.51004e-07 1.43557 0.115142 1.70552 0.31088 1.92638L9.22279 11.6441C9.44156 11.8773 9.70638 12 10.0058 12Z" fill="#769CFF"/>
</svg>
