<svg width="15" height="12" viewBox="0 0 15 12" fill="none" xmlns="http://www.w3.org/2000/svg">
<path fill-rule="evenodd" clip-rule="evenodd" d="M4.01163 0C2.8849 0 1.86603 0.261814 1.12651 0.900259C0.379967 1.54477 0 2.50187 0 3.72973V8.27027C0 9.49816 0.379967 10.4552 1.12651 11.0997C1.86603 11.7382 2.8849 12 4.01163 12H10.9884C12.1151 12 13.134 11.7382 13.8735 11.0997C14.62 10.4552 15 9.49816 15 8.27027V3.72973C15 2.50187 14.62 1.54477 13.8735 0.900259C13.134 0.261814 12.1151 0 10.9884 0H4.01163ZM12.5431 3.64041C12.7718 3.47613 12.8139 3.17061 12.6372 2.95801C12.4605 2.7454 12.1319 2.70623 11.9032 2.87051L8.03316 5.65077C7.71914 5.87643 7.28079 5.87643 6.9667 5.65077L3.0967 2.87051C2.86802 2.70623 2.53941 2.7454 2.36271 2.95801C2.18601 3.17061 2.22814 3.47613 2.45682 3.64041L6.32686 6.42071C7.01784 6.91706 7.98209 6.91706 8.67307 6.42071L12.5431 3.64041Z" fill="#0447AB"/>
</svg>
