<svg width="24" height="21" viewBox="0 0 24 21" fill="none" xmlns="http://www.w3.org/2000/svg">
<path d="M0.130859 11.8603C0.130859 14.2606 2.16106 16.1902 5.25829 16.1902H11.3111V20.2754C11.3111 20.6708 11.6605 21.0002 12.0665 21.0002C12.4726 21.0002 12.8125 20.6708 12.8125 20.2754V16.1902H19.328C22.0475 16.1902 23.87 14.496 23.87 12.2651C23.87 10.4202 22.7275 8.72588 20.8861 7.96343C20.9049 3.76531 17.8738 0.734375 14.0118 0.734375C11.4528 0.734375 9.63033 2.09923 8.49716 3.74648C6.35366 3.1723 3.64358 4.82896 3.59636 7.47396C1.46229 7.81282 0.130859 9.68598 0.130859 11.8603Z" fill="white"/>
<path d="M11.3121 15.8044V10.9567L11.3688 9.55419L10.8872 10.0625L9.30079 11.738C9.16857 11.8886 8.96083 11.9639 8.78147 11.9639C8.38486 11.9639 8.10156 11.6815 8.10156 11.305C8.10156 11.0979 8.18655 10.9473 8.32821 10.8061L11.5198 7.73754C11.7087 7.54929 11.8692 7.4834 12.0675 7.4834C12.2564 7.4834 12.4169 7.54929 12.6058 7.73754L15.7974 10.8061C15.9391 10.9473 16.0241 11.0979 16.0241 11.305C16.0241 11.6815 15.7219 11.9639 15.3348 11.9639C15.1553 11.9639 14.957 11.8886 14.8248 11.738L13.2384 10.0625L12.7569 9.55419L12.8135 10.9567V15.8044C12.8135 16.2185 12.4736 16.548 12.0675 16.548C11.6521 16.548 11.3121 16.2185 11.3121 15.8044Z" fill="#0066FF"/>
</svg>
