<svg width="20" height="20" viewBox="0 0 20 20" fill="none" xmlns="http://www.w3.org/2000/svg">
<path d="M13.6361 0.0109601C13.0111 1.02445e-07 12.3051 0 11.5 0H8.5C5.22657 0 3.58985 -5.96047e-08 2.38751 0.7368C1.71473 1.14908 1.14908 1.71473 0.7368 2.38751C-5.96046e-08 3.58985 0 5.22657 0 8.5V9.5C0 11.8297 -2.98023e-08 12.9946 0.3806 13.9134C0.88807 15.1386 1.86144 16.1119 3.08658 16.6194C3.74689 16.8929 4.53422 16.9698 5.78958 16.9915C6.63992 17.0061 7.06509 17.0134 7.40279 17.2098C7.74049 17.4063 7.95073 17.7614 8.3712 18.4718L8.9133 19.3877C9.3965 20.204 10.6035 20.204 11.0867 19.3877L11.6288 18.4718C12.0492 17.7614 12.2595 17.4062 12.5972 17.2098C12.9349 17.0134 13.36 17.0061 14.2104 16.9915C15.4658 16.9698 16.2531 16.8929 16.9134 16.6194C18.1386 16.1119 19.1119 15.1386 19.6194 13.9134C20 12.9946 20 11.8297 20 9.5V8.5C20 7.69494 20 6.98889 19.989 6.36394C19.1942 7.07068 18.1473 7.5 17 7.5C14.5147 7.5 12.5 5.48528 12.5 3C12.5 1.85275 12.9293 0.80577 13.6361 0.0109601Z" fill="#0066FF"/>
</svg>
