<svg width="24" height="24" viewBox="0 0 24 24" fill="none" xmlns="http://www.w3.org/2000/svg">
<path d="M22.3256 12C22.3256 17.7026 17.7026 22.3256 12 22.3256V24C18.6275 24 24 18.6275 24 12H22.3256ZM12 22.3256C6.29734 22.3256 1.67442 17.7026 1.67442 12H0C0 18.6275 5.37258 24 12 24V22.3256ZM1.67442 12C1.67442 6.29734 6.29734 1.67442 12 1.67442V0C5.37258 0 0 5.37258 0 12H1.67442ZM15.907 14.5116C12.3621 14.5116 9.48837 11.6379 9.48837 8.09302H7.81395C7.81395 12.5627 11.4373 16.186 15.907 16.186V14.5116ZM21.405 11.4073C20.2797 13.2695 18.238 14.5116 15.907 14.5116V16.186C18.8483 16.186 21.4222 14.6164 22.8382 12.2732L21.405 11.4073ZM9.48837 8.09302C9.48837 5.76203 10.7305 3.72034 12.5927 2.59498L11.7268 1.16188C9.38354 2.57782 7.81395 5.15173 7.81395 8.09302H9.48837ZM12 1.67442C11.9012 1.67442 11.7853 1.62986 11.7013 1.54234C11.6301 1.46821 11.6135 1.39807 11.6096 1.36971C11.6049 1.33492 11.6073 1.23412 11.7268 1.16188L12.5927 2.59498C13.1545 2.25561 13.3351 1.63421 13.269 1.1456C13.2004 0.637686 12.7999 0 12 0V1.67442ZM22.8382 12.2732C22.7658 12.3927 22.665 12.3951 22.6303 12.3904C22.602 12.3865 22.5318 12.3699 22.4576 12.2987C22.3701 12.2147 22.3256 12.0988 22.3256 12H24C24 11.2001 23.3623 10.7996 22.8544 10.731C22.3658 10.6649 21.7443 10.8455 21.405 11.4073L22.8382 12.2732Z" fill="white"/>
</svg>
