<svg width="30" height="28" viewBox="0 0 30 28" fill="none" xmlns="http://www.w3.org/2000/svg">
<path d="M29.8281 1.72697C29.6121 1.24261 29.2127 0.863721 28.7177 0.673415C28.2227 0.483109 27.6723 0.496927 27.1875 0.711838L10.7877 8.00041H5.99999C4.43116 8.00038 2.92472 8.61482 1.80346 9.71209C0.682197 10.8094 0.0353088 12.3021 0.00140302 13.8706C-0.0325028 15.4391 0.549271 16.9584 1.62207 18.1031C2.69487 19.2478 4.17334 19.9268 5.74071 19.9945L9.99999 19.9985V27.0004H12V20.5387L27.1885 27.2895C27.493 27.4246 27.8264 27.4815 28.1585 27.455C28.4906 27.4286 28.8108 27.3196 29.0901 27.138C29.3694 26.9564 29.5989 26.7079 29.7578 26.4151C29.9167 26.1223 29.9999 25.7945 30 25.4613V2.53898C29.9995 2.25933 29.941 1.98282 29.8281 1.72697ZM5.8164 17.9965C4.77255 17.9485 3.78894 17.4939 3.07596 16.7299C2.36297 15.966 1.97721 14.9534 2.0012 13.9087C2.02519 12.8641 2.45701 11.8703 3.2043 11.1399C3.9516 10.4095 4.95503 10.0005 5.99999 10.0004H9.99999V18.0004H6.02245L5.8164 17.9965ZM28 25.4613L12 18.351V9.65031L28 2.53898V25.4613Z" fill="#0066FF"/>
</svg>
