<svg width="17" height="20" viewBox="0 0 17 20" fill="none" xmlns="http://www.w3.org/2000/svg">
<path d="M3.08389 15.4H13.9161C15.6302 15.4 16.6087 13.7448 15.5802 12.5849C15.1249 12.0714 14.8443 11.4624 14.7688 10.8237L14.3496 7.27767C14.1235 5.36557 12.6366 3.79647 10.6281 3.1363V3.04295C10.6281 1.91466 9.6753 1 8.5 1C7.3247 1 6.37193 1.91466 6.37193 3.04295V3.1363C4.36343 3.79647 2.8765 5.36557 2.65044 7.27767L2.2312 10.8237C2.15569 11.4624 1.8751 12.0714 1.4198 12.5849C0.391335 13.7448 1.36978 15.4 3.08389 15.4Z" fill="#0066FF"/>
<path d="M14.3496 7.27767L13.3565 7.39508L14.3496 7.27767ZM14.7688 10.8237L15.7619 10.7063L14.7688 10.8237ZM2.2312 10.8237L1.23811 10.7063H1.23811L2.2312 10.8237ZM2.65044 7.27767L3.64352 7.39508L2.65044 7.27767ZM1.4198 12.5849L0.671576 11.9215H0.671576L1.4198 12.5849ZM15.5802 12.5849L14.832 13.2484H14.832L15.5802 12.5849ZM10.6281 3.1363H9.62807C9.62807 3.56827 9.90545 3.95141 10.3158 4.08629L10.6281 3.1363ZM6.37193 3.1363L6.68418 4.08629C7.09455 3.95141 7.37193 3.56827 7.37193 3.1363H6.37193ZM12.244 17.5637C12.4449 17.0492 12.1906 16.4693 11.6762 16.2685C11.1617 16.0676 10.5818 16.3219 10.381 16.8363L12.244 17.5637ZM6.61903 16.8363C6.41819 16.3219 5.83831 16.0676 5.32384 16.2685C4.80937 16.4693 4.55512 17.0492 4.75597 17.5637L6.61903 16.8363ZM13.9161 14.4H3.08389V16.4H13.9161V14.4ZM13.3565 7.39508L13.7757 10.9411L15.7619 10.7063L15.3426 7.16026L13.3565 7.39508ZM3.22428 10.9411L3.64352 7.39508L1.65735 7.16026L1.23811 10.7063L3.22428 10.9411ZM2.16802 13.2484C2.74918 12.5929 3.12316 11.7964 3.22428 10.9411L1.23811 10.7063C1.18822 11.1284 1.00102 11.5499 0.671576 11.9215L2.16802 13.2484ZM13.7757 10.9411C13.8768 11.7964 14.2508 12.5929 14.832 13.2484L16.3284 11.9215C15.999 11.5499 15.8118 11.1284 15.7619 10.7063L13.7757 10.9411ZM3.08389 14.4C2.55272 14.4 2.22093 14.1498 2.08422 13.9185C1.96308 13.7136 1.95693 13.4864 2.16802 13.2484L0.671576 11.9215C-0.1458 12.8433 -0.17695 14.0236 0.362537 14.9363C0.886459 15.8226 1.90095 16.4 3.08389 16.4V14.4ZM13.9161 16.4C15.099 16.4 16.1135 15.8226 16.6375 14.9363C17.1769 14.0236 17.1458 12.8433 16.3284 11.9215L14.832 13.2484C15.0431 13.4864 15.0369 13.7136 14.9158 13.9185C14.7791 14.1498 14.4473 14.4 13.9161 14.4V16.4ZM11.6281 3.1363V3.04295H9.62807V3.1363H11.6281ZM15.3426 7.16026C15.0613 4.78066 13.2339 2.94017 10.9403 2.1863L10.3158 4.08629C12.0393 4.65278 13.1857 5.95048 13.3565 7.39508L15.3426 7.16026ZM7.37193 3.1363V3.04295H5.37193V3.1363H7.37193ZM3.64352 7.39508C3.81431 5.95048 4.96074 4.65278 6.68418 4.08629L6.05967 2.1863C3.76612 2.94017 1.93868 4.78066 1.65735 7.16026L3.64352 7.39508ZM8.5 2C9.16188 2 9.62807 2.50503 9.62807 3.04295H11.6281C11.6281 1.32429 10.1887 0 8.5 0V2ZM8.5 0C6.81128 0 5.37193 1.32429 5.37193 3.04295H7.37193C7.37193 2.50503 7.83811 2 8.5 2V0ZM10.381 16.8363C10.1341 17.4687 9.42261 18 8.5 18V20C10.1743 20 11.6721 19.0286 12.244 17.5637L10.381 16.8363ZM8.5 18C7.57739 18 6.86591 17.4687 6.61903 16.8363L4.75597 17.5637C5.32787 19.0286 6.82568 20 8.5 20V18Z" fill="#0066FF"/>
</svg>
