<svg width="22" height="22" viewBox="0 0 22 22" fill="none" xmlns="http://www.w3.org/2000/svg">
<path d="M16.5738 0.298726C17.05 0.101508 17.5603 0 18.0756 0C18.591 0 19.1013 0.101508 19.5775 0.298726C20.0536 0.495945 20.4862 0.785013 20.8506 1.14942C21.215 1.51383 21.5041 1.94645 21.7014 2.42258C21.8985 2.8987 22 3.40901 22 3.92436C22 4.43971 21.8985 4.95002 21.7014 5.42616C21.5041 5.90228 21.215 6.3349 20.8506 6.6993L20.2806 7.26928L14.7308 1.71938L15.3007 1.14942C15.6651 0.785013 16.0977 0.495945 16.5738 0.298726Z" fill="#769CFF"/>
<path d="M13.1751 3.27502L1.82006 14.6301C1.68469 14.7654 1.587 14.9338 1.53663 15.1185L0.038784 20.6105C-0.0650779 20.9914 0.0430852 21.3987 0.32221 21.6778C0.601335 21.9569 1.00862 22.0651 1.38945 21.9612L6.88156 20.4634C7.06625 20.413 7.2346 20.3153 7.36995 20.1799L18.725 8.82494L13.1751 3.27502Z" fill="#769CFF"/>
</svg>
