<svg width="14" height="14" viewBox="0 0 14 14" fill="none" xmlns="http://www.w3.org/2000/svg">
<path d="M9.76592 8.9816L9.41164 9.35449C9.41164 9.35449 8.56962 10.241 6.27129 7.82124C3.97298 5.40155 4.81498 4.51507 4.81498 4.51507L5.03805 4.2802C5.58763 3.70164 5.63943 2.77275 5.15993 2.09463L4.1792 0.707477C3.58577 -0.131834 2.43908 -0.242706 1.7589 0.473388L0.538104 1.75867C0.200844 2.11374 -0.0251625 2.57402 0.00224637 3.08463C0.072363 4.39092 0.63055 7.20153 3.74528 10.4808C7.04829 13.9582 10.1475 14.0964 11.4149 13.9713C11.8158 13.9318 12.1644 13.7156 12.4453 13.4198L13.5502 12.2566C14.296 11.4714 14.0857 10.1252 13.1314 9.57602L11.6455 8.7207C11.0189 8.36008 10.2556 8.46599 9.76592 8.9816Z" fill="#0447AB"/>
</svg>
