<svg width="30" height="22" viewBox="0 0 30 22" fill="none" xmlns="http://www.w3.org/2000/svg">
<path d="M15.0005 22C11.8469 21.9903 8.77047 21.0236 6.1782 19.2276C3.58593 17.4316 1.59994 14.891 0.482907 11.9418L0.373047 11.648L0.505857 11.1274C1.35936 7.93647 3.24197 5.11633 5.86169 3.10441C8.48141 1.0925 11.6918 0.00128082 14.995 1.12682e-06C18.2981 -0.00127857 21.5093 1.08746 24.1306 3.09734C26.7519 5.10722 28.6367 7.92591 29.4927 11.1162L29.6274 11.6489L29.5181 11.9419C28.4008 14.8909 26.4147 17.4314 23.8225 19.2273C21.2303 21.0232 18.154 21.9901 15.0005 22ZM2.46875 11.5302C3.47391 14.0315 5.20456 16.1747 7.43799 17.6841C9.67142 19.1935 12.3054 20.0001 15.0011 20C17.6967 19.9999 20.3307 19.1931 22.564 17.6835C24.7973 16.1739 26.5278 14.0305 27.5327 11.5292C26.7728 8.78919 25.1358 6.37372 22.8724 4.65265C20.609 2.93158 17.8438 1.99976 15.0004 1.99988C12.1569 1.99999 9.39185 2.93202 7.12855 4.65328C4.86524 6.37453 3.22844 8.79012 2.46875 11.5302ZM15.0005 16C14.0116 16 13.0449 15.7067 12.2226 15.1573C11.4004 14.6079 10.7595 13.827 10.3811 12.9134C10.0027 11.9997 9.90363 10.9944 10.0966 10.0245C10.2895 9.05459 10.7657 8.16368 11.465 7.46442C12.1642 6.76515 13.0551 6.28895 14.025 6.09602C14.9949 5.9031 16.0003 6.00211 16.9139 6.38055C17.8275 6.75899 18.6084 7.39985 19.1578 8.2221C19.7072 9.04434 20.0005 10.011 20.0005 11C19.9989 12.3256 19.4716 13.5964 18.5343 14.5338C17.597 15.4711 16.3261 15.9984 15.0005 16ZM15.0005 7.99995C14.4071 7.99995 13.8271 8.1759 13.3338 8.50554C12.8404 8.83519 12.4559 9.30372 12.2288 9.8519C12.0018 10.4001 11.9424 11.0033 12.0581 11.5852C12.1739 12.1672 12.4596 12.7017 12.8792 13.1213C13.2987 13.5408 13.8333 13.8266 14.4152 13.9423C14.9972 14.0581 15.6004 13.9987 16.1485 13.7716C16.6967 13.5445 17.1653 13.16 17.4949 12.6667C17.8245 12.1733 18.0005 11.5933 18.0005 11C17.9996 10.2046 17.6833 9.44201 17.1208 8.87959C16.5584 8.31717 15.7959 8.00082 15.0005 7.99995Z" fill="#0066FF"/>
</svg>
