<svg width="14" height="22" viewBox="0 0 14 22" fill="none" xmlns="http://www.w3.org/2000/svg">
<path d="M4.45455 14.8949V14.5568C4.46117 13.3968 4.56392 12.4721 4.76278 11.7827C4.96828 11.0933 5.26657 10.5365 5.65767 10.1122C6.04877 9.68797 6.51941 9.3035 7.0696 8.95881C7.48059 8.69365 7.84848 8.41856 8.1733 8.13352C8.49811 7.84848 8.75663 7.53362 8.94886 7.18892C9.1411 6.83759 9.23722 6.4465 9.23722 6.01562C9.23722 5.55824 9.12784 5.1572 8.90909 4.8125C8.69034 4.4678 8.39536 4.20265 8.02415 4.01704C7.65956 3.83144 7.25521 3.73864 6.81108 3.73864C6.38021 3.73864 5.97254 3.83475 5.58807 4.02699C5.2036 4.21259 4.88873 4.491 4.64347 4.86222C4.3982 5.2268 4.26563 5.68087 4.24574 6.22443H0.18892C0.222064 4.89867 0.540246 3.80492 1.14347 2.94318C1.74669 2.07481 2.54545 1.4285 3.53977 1.00426C4.53409 0.573389 5.63116 0.357954 6.83097 0.357954C8.15009 0.357954 9.31676 0.576704 10.331 1.0142C11.3452 1.44507 12.1406 2.0715 12.7173 2.89347C13.294 3.71543 13.5824 4.70644 13.5824 5.86648C13.5824 6.64204 13.4531 7.33144 13.1946 7.93466C12.9427 8.53125 12.5881 9.06155 12.1307 9.52557C11.6733 9.98295 11.133 10.3973 10.5099 10.7685C9.98627 11.08 9.5554 11.4048 9.21733 11.7429C8.88589 12.081 8.63731 12.4721 8.47159 12.9162C8.3125 13.3603 8.22964 13.9072 8.22301 14.5568V14.8949H4.45455ZM6.4233 21.2585C5.76042 21.2585 5.19366 21.0265 4.72301 20.5625C4.259 20.0919 4.0303 19.5284 4.03693 18.8722C4.0303 18.2225 4.259 17.6657 4.72301 17.2017C5.19366 16.7377 5.76042 16.5057 6.4233 16.5057C7.05303 16.5057 7.60653 16.7377 8.08381 17.2017C8.56108 17.6657 8.80303 18.2225 8.80966 18.8722C8.80303 19.3097 8.68703 19.7107 8.46165 20.0753C8.2429 20.4332 7.95455 20.7216 7.59659 20.9403C7.23864 21.1525 6.84754 21.2585 6.4233 21.2585Z" fill="white"/>
</svg>
