<svg width="26" height="31" viewBox="0 0 26 31" fill="none" xmlns="http://www.w3.org/2000/svg">
<path d="M13 0.797852L13.555 1.16785C17.398 3.72985 21.208 4.99985 25 4.99985H26V17.4999C26 25.5739 20.21 30.9999 13 30.9999C5.79 30.9999 0 25.5739 0 17.4999V4.99985H1C4.792 4.99985 8.602 3.72985 12.445 1.16785L13 0.797852ZM12 3.80285C8.8 5.66885 5.582 6.72285 2.352 6.95185L2 6.97185V17.4999C2 24.0579 6.347 28.4909 12 28.9589V3.80285ZM14 3.80285V28.9599C19.654 28.4918 24 24.0589 24 17.5009V6.97185L23.648 6.95185C20.418 6.72185 17.2 5.66985 14.001 3.80385L14 3.80285Z" fill="#0066FF"/>
</svg>
