<svg width="17" height="6" viewBox="0 0 17 6" fill="none" xmlns="http://www.w3.org/2000/svg">
<path d="M14.5407 3.71371L9.56084 0.483871C9.22545 0.266126 8.82445 -5.39884e-07 8.49636 -5.68566e-07C8.17551 -5.96616e-07 7.76724 0.266126 7.43182 0.48387L2.45935 3.71371C2.18223 3.89516 2 4.30646 2 4.75403C2 5.46774 2.31351 6 2.73641 6C2.9551 6 3.24677 5.79435 3.42901 5.68548L9.01402 2.04436L7.98599 2.04436L13.5709 5.68548C13.7532 5.79435 14.0376 6 14.2636 6C14.6865 6 15 5.46774 15 4.75403C15 4.30646 14.8177 3.89516 14.5407 3.71371Z" fill="#0447AB"/>
</svg>
