<svg width="30" height="30" viewBox="0 0 30 30" fill="none" xmlns="http://www.w3.org/2000/svg">
<path d="M23 30C24.8565 30 26.637 29.2625 27.9497 27.9497C29.2625 26.637 30 24.8565 30 23C30 21.1435 29.2625 19.363 27.9497 18.0503C26.637 16.7375 24.8565 16 23 16H7C5.14348 16 3.36301 16.7375 2.05025 18.0503C0.737498 19.363 1.19209e-07 21.1435 1.19209e-07 23C1.19209e-07 24.8565 0.737498 26.637 2.05025 27.9497C3.36301 29.2625 5.14348 30 7 30H23ZM28 23C28 23.9889 27.7068 24.9556 27.1573 25.7779C26.6079 26.6001 25.827 27.241 24.9134 27.6194C23.9998 27.9978 22.9945 28.0969 22.0245 27.9039C21.0546 27.711 20.1637 27.2348 19.4645 26.5355C18.7652 25.8363 18.289 24.9454 18.0961 23.9755C17.9031 23.0055 18.0022 22.0002 18.3806 21.0866C18.759 20.173 19.3999 19.3921 20.2221 18.8427C21.0444 18.2932 22.0111 18 23 18C24.3256 18.0016 25.5965 18.5288 26.5338 19.4662C27.4712 20.4035 27.9984 21.6744 28 23ZM2 23C2.00156 21.6744 2.52884 20.4035 3.46619 19.4662C4.40353 18.5288 5.6744 18.0016 7 18H18.1107C17.4427 18.6502 16.9118 19.4276 16.5493 20.2864C16.1868 21.1451 16 22.0678 16 23C16 23.9322 16.1868 24.8549 16.5493 25.7136C16.9118 26.5724 17.4427 27.3498 18.1107 28H7C5.6744 27.9984 4.40353 27.4712 3.46619 26.5338C2.52884 25.5965 2.00156 24.3256 2 23ZM23 0H7C5.14348 0 3.36301 0.737498 2.05025 2.05025C0.737498 3.36301 0 5.14348 0 7C0 8.85652 0.737498 10.637 2.05025 11.9497C3.36301 13.2625 5.14348 14 7 14H23C24.8565 14 26.637 13.2625 27.9497 11.9497C29.2625 10.637 30 8.85652 30 7C30 5.14348 29.2625 3.36301 27.9497 2.05025C26.637 0.737498 24.8565 0 23 0ZM2 7C2 6.01109 2.29324 5.04439 2.84265 4.22215C3.39206 3.3999 4.17295 2.75904 5.08658 2.3806C6.00021 2.00216 7.00555 1.90315 7.97545 2.09607C8.94536 2.289 9.83627 2.7652 10.5355 3.46447C11.2348 4.16373 11.711 5.05464 11.9039 6.02455C12.0969 6.99445 11.9978 7.99979 11.6194 8.91342C11.241 9.82705 10.6001 10.6079 9.77785 11.1573C8.95561 11.7068 7.98891 12 7 12C5.6744 11.9984 4.40353 11.4712 3.46619 10.5338C2.52884 9.59647 2.00156 8.3256 2 7ZM23 12H11.8897C12.5575 11.3498 13.0883 10.5723 13.4508 9.71356C13.8133 8.8548 14 7.93212 14 7C14 6.06788 13.8133 5.1452 13.4508 4.28644C13.0883 3.42768 12.5575 2.65023 11.8897 2H23C24.3261 2 25.5979 2.52678 26.5355 3.46447C27.4732 4.40215 28 5.67392 28 7C28 8.32608 27.4732 9.59785 26.5355 10.5355C25.5979 11.4732 24.3261 12 23 12Z" fill="#0066FF"/>
</svg>
