<svg width="24" height="28" viewBox="0 0 24 28" fill="none" xmlns="http://www.w3.org/2000/svg">
<path d="M4.96552 28H8.27586V23.0588H18.2069V19.7647H8.27586V16.4706H15.7241C20.2874 16.4706 24 12.7762 24 8.23529C24 3.69435 20.2874 0 15.7241 0H6.62069C6.18171 0 5.76071 0.173529 5.45031 0.482413C5.1399 0.791296 4.96552 1.21023 4.96552 1.64706V13.1765H0V16.4706H4.96552V19.7647H0V23.0588H4.96552V28ZM8.27586 3.29412H15.7241C18.4618 3.29412 20.6897 5.51106 20.6897 8.23529C20.6897 10.9595 18.4618 13.1765 15.7241 13.1765H8.27586V3.29412Z" fill="#0066FF"/>
</svg>
