<svg width="398" height="234" viewBox="0 0 398 234" fill="none" xmlns="http://www.w3.org/2000/svg">
<g filter="url(#filter0_dd_498_3857)">
<g clip-path="url(#clip0_498_3857)">
<path d="M49 48C49 44.6863 51.6863 42 55 42H266V184H55C51.6863 184 49 181.314 49 178V48Z" fill="white"/>
<path d="M69.7045 61.875V60.3636H78.7102V61.875H75.0795V72H73.3295V61.875H69.7045ZM83.0597 72.1761C82.1998 72.1761 81.4593 71.9924 80.8381 71.625C80.2206 71.2538 79.7434 70.733 79.4062 70.0625C79.0729 69.3883 78.9062 68.5985 78.9062 67.6932C78.9062 66.7992 79.0729 66.0114 79.4062 65.3295C79.7434 64.6477 80.2131 64.1155 80.8153 63.733C81.4214 63.3504 82.1297 63.1591 82.9403 63.1591C83.4328 63.1591 83.91 63.2405 84.3722 63.4034C84.8343 63.5663 85.2491 63.822 85.6165 64.1705C85.9839 64.5189 86.2737 64.9716 86.4858 65.5284C86.6979 66.0814 86.804 66.7538 86.804 67.5455V68.1477H79.8665V66.875H85.1392C85.1392 66.428 85.0483 66.0322 84.8665 65.6875C84.6847 65.339 84.429 65.0644 84.0994 64.8636C83.7737 64.6629 83.3911 64.5625 82.9517 64.5625C82.4744 64.5625 82.0578 64.6799 81.7017 64.9148C81.3494 65.1458 81.0767 65.4489 80.8835 65.8239C80.6941 66.1951 80.5994 66.5985 80.5994 67.0341V68.0284C80.5994 68.6117 80.7017 69.108 80.9062 69.517C81.1146 69.9261 81.4044 70.2386 81.7756 70.4545C82.1468 70.6667 82.5805 70.7727 83.0767 70.7727C83.3987 70.7727 83.6922 70.7273 83.9574 70.6364C84.2225 70.5417 84.4517 70.4015 84.6449 70.2159C84.8381 70.0303 84.9858 69.8011 85.0881 69.5284L86.696 69.8182C86.5672 70.2917 86.3362 70.7064 86.0028 71.0625C85.6733 71.4148 85.2585 71.6894 84.7585 71.8864C84.2623 72.0795 83.696 72.1761 83.0597 72.1761ZM90.3878 60.3636V72H88.6889V60.3636H90.3878ZM96.4347 72.1761C95.5748 72.1761 94.8343 71.9924 94.2131 71.625C93.5956 71.2538 93.1184 70.733 92.7812 70.0625C92.4479 69.3883 92.2812 68.5985 92.2812 67.6932C92.2812 66.7992 92.4479 66.0114 92.7812 65.3295C93.1184 64.6477 93.5881 64.1155 94.1903 63.733C94.7964 63.3504 95.5047 63.1591 96.3153 63.1591C96.8078 63.1591 97.285 63.2405 97.7472 63.4034C98.2093 63.5663 98.6241 63.822 98.9915 64.1705C99.3589 64.5189 99.6487 64.9716 99.8608 65.5284C100.073 66.0814 100.179 66.7538 100.179 67.5455V68.1477H93.2415V66.875H98.5142C98.5142 66.428 98.4233 66.0322 98.2415 65.6875C98.0597 65.339 97.804 65.0644 97.4744 64.8636C97.1487 64.6629 96.7661 64.5625 96.3267 64.5625C95.8494 64.5625 95.4328 64.6799 95.0767 64.9148C94.7244 65.1458 94.4517 65.4489 94.2585 65.8239C94.0691 66.1951 93.9744 66.5985 93.9744 67.0341V68.0284C93.9744 68.6117 94.0767 69.108 94.2812 69.517C94.4896 69.9261 94.7794 70.2386 95.1506 70.4545C95.5218 70.6667 95.9555 70.7727 96.4517 70.7727C96.7737 70.7727 97.0672 70.7273 97.3324 70.6364C97.5975 70.5417 97.8267 70.4015 98.0199 70.2159C98.2131 70.0303 98.3608 69.8011 98.4631 69.5284L100.071 69.8182C99.9422 70.2917 99.7112 70.7064 99.3778 71.0625C99.0483 71.4148 98.6335 71.6894 98.1335 71.8864C97.6373 72.0795 97.071 72.1761 96.4347 72.1761ZM105.723 75.4545C105.03 75.4545 104.433 75.3636 103.933 75.1818C103.437 75 103.032 74.7595 102.717 74.4602C102.403 74.161 102.168 73.8333 102.013 73.4773L103.473 72.875C103.575 73.0417 103.712 73.2178 103.882 73.4034C104.056 73.5928 104.291 73.7538 104.587 73.8864C104.886 74.0189 105.27 74.0852 105.74 74.0852C106.384 74.0852 106.916 73.928 107.337 73.6136C107.757 73.303 107.967 72.8068 107.967 72.125V70.4091H107.859C107.757 70.5947 107.609 70.8011 107.416 71.0284C107.227 71.2557 106.965 71.4527 106.632 71.6193C106.299 71.786 105.865 71.8693 105.331 71.8693C104.642 71.8693 104.02 71.7083 103.467 71.3864C102.918 71.0606 102.482 70.5814 102.161 69.9489C101.842 69.3125 101.683 68.5303 101.683 67.6023C101.683 66.6742 101.84 65.8788 102.155 65.2159C102.473 64.553 102.909 64.0455 103.462 63.6932C104.015 63.3371 104.642 63.1591 105.342 63.1591C105.884 63.1591 106.321 63.25 106.655 63.4318C106.988 63.6098 107.248 63.8182 107.433 64.0568C107.623 64.2955 107.768 64.5057 107.871 64.6875H107.996V63.2727H109.661V72.1932C109.661 72.9432 109.486 73.5587 109.138 74.0398C108.789 74.5208 108.318 74.8769 107.723 75.108C107.132 75.339 106.465 75.4545 105.723 75.4545ZM105.706 70.4602C106.195 70.4602 106.607 70.3466 106.945 70.1193C107.286 69.8883 107.543 69.5587 107.717 69.1307C107.895 68.6989 107.984 68.1818 107.984 67.5795C107.984 66.9924 107.897 66.4754 107.723 66.0284C107.549 65.5814 107.293 65.233 106.956 64.983C106.619 64.7292 106.202 64.6023 105.706 64.6023C105.195 64.6023 104.768 64.7348 104.428 65C104.087 65.2614 103.829 65.6174 103.655 66.0682C103.484 66.5189 103.399 67.0227 103.399 67.5795C103.399 68.1515 103.486 68.6534 103.661 69.0852C103.835 69.517 104.092 69.8542 104.433 70.0966C104.778 70.339 105.202 70.4602 105.706 70.4602ZM111.939 72V63.2727H113.581V64.6591H113.672C113.831 64.1894 114.111 63.8201 114.513 63.5511C114.918 63.2784 115.376 63.142 115.888 63.142C115.994 63.142 116.119 63.1458 116.263 63.1534C116.411 63.161 116.526 63.1705 116.609 63.1818V64.8068C116.541 64.7879 116.42 64.767 116.246 64.7443C116.071 64.7178 115.897 64.7045 115.723 64.7045C115.321 64.7045 114.964 64.7898 114.649 64.9602C114.339 65.1269 114.092 65.3598 113.911 65.6591C113.729 65.9545 113.638 66.2917 113.638 66.6705V72H111.939ZM120.541 72.1932C119.988 72.1932 119.488 72.0909 119.041 71.8864C118.594 71.678 118.24 71.3769 117.979 70.983C117.721 70.589 117.592 70.1061 117.592 69.5341C117.592 69.0417 117.687 68.6364 117.876 68.3182C118.066 68 118.321 67.7481 118.643 67.5625C118.965 67.3769 119.325 67.2367 119.723 67.142C120.121 67.0473 120.526 66.9754 120.939 66.9261C121.462 66.8655 121.886 66.8163 122.212 66.7784C122.537 66.7367 122.774 66.6705 122.922 66.5795C123.07 66.4886 123.143 66.3409 123.143 66.1364V66.0966C123.143 65.6004 123.003 65.2159 122.723 64.9432C122.446 64.6705 122.034 64.5341 121.484 64.5341C120.912 64.5341 120.462 64.661 120.132 64.9148C119.806 65.1648 119.581 65.4432 119.456 65.75L117.859 65.3864C118.049 64.8561 118.325 64.428 118.689 64.1023C119.056 63.7727 119.479 63.5341 119.956 63.3864C120.433 63.2348 120.935 63.1591 121.462 63.1591C121.81 63.1591 122.179 63.2008 122.57 63.2841C122.964 63.3636 123.331 63.5114 123.672 63.7273C124.017 63.9432 124.299 64.2519 124.518 64.6534C124.738 65.0511 124.848 65.5682 124.848 66.2045V72H123.189V70.8068H123.121C123.011 71.0265 122.846 71.2424 122.626 71.4545C122.407 71.6667 122.125 71.8428 121.78 71.983C121.435 72.1231 121.022 72.1932 120.541 72.1932ZM120.911 70.8295C121.38 70.8295 121.782 70.7367 122.115 70.5511C122.452 70.3655 122.708 70.1231 122.882 69.8239C123.06 69.5208 123.149 69.197 123.149 68.8523V67.7273C123.089 67.7879 122.971 67.8447 122.797 67.8977C122.626 67.947 122.431 67.9905 122.212 68.0284C121.992 68.0625 121.778 68.0947 121.57 68.125C121.361 68.1515 121.187 68.1742 121.047 68.1932C120.717 68.2348 120.416 68.3049 120.143 68.4034C119.875 68.5019 119.659 68.6439 119.496 68.8295C119.337 69.0114 119.257 69.2538 119.257 69.5568C119.257 69.9773 119.412 70.2955 119.723 70.5114C120.034 70.7235 120.429 70.8295 120.911 70.8295ZM127.111 72V63.2727H128.741V64.6932H128.849C129.031 64.2121 129.329 63.8371 129.741 63.5682C130.154 63.2955 130.649 63.1591 131.224 63.1591C131.808 63.1591 132.296 63.2955 132.69 63.5682C133.088 63.8409 133.382 64.2159 133.571 64.6932H133.662C133.87 64.2273 134.202 63.8561 134.656 63.5795C135.111 63.2992 135.652 63.1591 136.281 63.1591C137.073 63.1591 137.719 63.4072 138.219 63.9034C138.723 64.3996 138.974 65.1477 138.974 66.1477V72H137.276V66.3068C137.276 65.7159 137.115 65.2879 136.793 65.0227C136.471 64.7576 136.086 64.625 135.639 64.625C135.086 64.625 134.656 64.7955 134.349 65.1364C134.043 65.4735 133.889 65.9072 133.889 66.4375V72H132.196V66.1989C132.196 65.7254 132.048 65.3447 131.753 65.0568C131.457 64.7689 131.073 64.625 130.599 64.625C130.277 64.625 129.98 64.7102 129.707 64.8807C129.438 65.0473 129.221 65.2803 129.054 65.5795C128.891 65.8788 128.81 66.2254 128.81 66.6193V72H127.111ZM146.393 66.3466V67.8182H141.234V66.3466H146.393ZM148.658 72V63.2727H150.357V66.9318H151.175L154.055 63.2727H156.158L152.777 67.517L156.197 72H154.089L151.459 68.5114H150.357V72H148.658ZM160.057 72.1932C159.504 72.1932 159.004 72.0909 158.557 71.8864C158.11 71.678 157.756 71.3769 157.494 70.983C157.237 70.589 157.108 70.1061 157.108 69.5341C157.108 69.0417 157.203 68.6364 157.392 68.3182C157.581 68 157.837 67.7481 158.159 67.5625C158.481 67.3769 158.841 67.2367 159.239 67.142C159.636 67.0473 160.042 66.9754 160.455 66.9261C160.977 66.8655 161.402 66.8163 161.727 66.7784C162.053 66.7367 162.29 66.6705 162.438 66.5795C162.585 66.4886 162.659 66.3409 162.659 66.1364V66.0966C162.659 65.6004 162.519 65.2159 162.239 64.9432C161.962 64.6705 161.549 64.5341 161 64.5341C160.428 64.5341 159.977 64.661 159.648 64.9148C159.322 65.1648 159.097 65.4432 158.972 65.75L157.375 65.3864C157.564 64.8561 157.841 64.428 158.205 64.1023C158.572 63.7727 158.994 63.5341 159.472 63.3864C159.949 63.2348 160.451 63.1591 160.977 63.1591C161.326 63.1591 161.695 63.2008 162.085 63.2841C162.479 63.3636 162.847 63.5114 163.188 63.7273C163.532 63.9432 163.814 64.2519 164.034 64.6534C164.254 65.0511 164.364 65.5682 164.364 66.2045V72H162.705V70.8068H162.636C162.527 71.0265 162.362 71.2424 162.142 71.4545C161.922 71.6667 161.64 71.8428 161.295 71.983C160.951 72.1231 160.538 72.1932 160.057 72.1932ZM160.426 70.8295C160.896 70.8295 161.297 70.7367 161.631 70.5511C161.968 70.3655 162.223 70.1231 162.398 69.8239C162.576 69.5208 162.665 69.197 162.665 68.8523V67.7273C162.604 67.7879 162.487 67.8447 162.312 67.8977C162.142 67.947 161.947 67.9905 161.727 68.0284C161.508 68.0625 161.294 68.0947 161.085 68.125C160.877 68.1515 160.703 68.1742 160.562 68.1932C160.233 68.2348 159.932 68.3049 159.659 68.4034C159.39 68.5019 159.174 68.6439 159.011 68.8295C158.852 69.0114 158.773 69.2538 158.773 69.5568C158.773 69.9773 158.928 70.2955 159.239 70.5114C159.549 70.7235 159.945 70.8295 160.426 70.8295ZM172.541 66.9034V68.375H167.814V66.9034H172.541ZM168.291 63.2727V72H166.626V63.2727H168.291ZM173.729 63.2727V72H172.07V63.2727H173.729ZM178.541 72.1932C177.988 72.1932 177.488 72.0909 177.041 71.8864C176.594 71.678 176.24 71.3769 175.979 70.983C175.721 70.589 175.592 70.1061 175.592 69.5341C175.592 69.0417 175.687 68.6364 175.876 68.3182C176.066 68 176.321 67.7481 176.643 67.5625C176.965 67.3769 177.325 67.2367 177.723 67.142C178.121 67.0473 178.526 66.9754 178.939 66.9261C179.462 66.8655 179.886 66.8163 180.212 66.7784C180.537 66.7367 180.774 66.6705 180.922 66.5795C181.07 66.4886 181.143 66.3409 181.143 66.1364V66.0966C181.143 65.6004 181.003 65.2159 180.723 64.9432C180.446 64.6705 180.034 64.5341 179.484 64.5341C178.912 64.5341 178.462 64.661 178.132 64.9148C177.806 65.1648 177.581 65.4432 177.456 65.75L175.859 65.3864C176.049 64.8561 176.325 64.428 176.689 64.1023C177.056 63.7727 177.479 63.5341 177.956 63.3864C178.433 63.2348 178.935 63.1591 179.462 63.1591C179.81 63.1591 180.179 63.2008 180.57 63.2841C180.964 63.3636 181.331 63.5114 181.672 63.7273C182.017 63.9432 182.299 64.2519 182.518 64.6534C182.738 65.0511 182.848 65.5682 182.848 66.2045V72H181.189V70.8068H181.121C181.011 71.0265 180.846 71.2424 180.626 71.4545C180.407 71.6667 180.125 71.8428 179.78 71.983C179.435 72.1231 179.022 72.1932 178.541 72.1932ZM178.911 70.8295C179.38 70.8295 179.782 70.7367 180.115 70.5511C180.452 70.3655 180.708 70.1231 180.882 69.8239C181.06 69.5208 181.149 69.197 181.149 68.8523V67.7273C181.089 67.7879 180.971 67.8447 180.797 67.8977C180.626 67.947 180.431 67.9905 180.212 68.0284C179.992 68.0625 179.778 68.0947 179.57 68.125C179.361 68.1515 179.187 68.1742 179.047 68.1932C178.717 68.2348 178.416 68.3049 178.143 68.4034C177.875 68.5019 177.659 68.6439 177.496 68.8295C177.337 69.0114 177.257 69.2538 177.257 69.5568C177.257 69.9773 177.412 70.2955 177.723 70.5114C178.034 70.7235 178.429 70.8295 178.911 70.8295ZM184.423 72L184.418 70.5284H184.73C184.973 70.5284 185.175 70.4773 185.338 70.375C185.505 70.2689 185.641 70.0909 185.747 69.8409C185.853 69.5909 185.935 69.2462 185.991 68.8068C186.048 68.3636 186.09 67.8068 186.116 67.1364L186.27 63.2727H192.361V72H190.696V64.7386H187.844L187.707 67.7045C187.673 68.4242 187.599 69.053 187.486 69.5909C187.376 70.1288 187.215 70.5777 187.003 70.9375C186.791 71.2936 186.518 71.5606 186.185 71.7386C185.851 71.9129 185.446 72 184.969 72H184.423Z" fill="#0A0A0A"/>
<path d="M219.583 58.1118L200.981 65.0358C199.711 65.5279 199.718 66.2115 200.748 66.5164L205.524 67.9544L216.573 61.2249C217.096 60.918 217.573 61.0831 217.181 61.4193L208.228 69.2183H208.226L208.228 69.2193L207.899 73.971C208.381 73.971 208.594 73.7573 208.865 73.5052L211.185 71.3278L216.01 74.768C216.9 75.241 217.539 74.9979 217.76 73.973L220.928 59.564C221.252 58.3093 220.431 57.7411 219.583 58.1118Z" fill="#2AABEE"/>
<path d="M77.5341 104.364V105.875H72.0341V116H70.2784V104.364H77.5341ZM78.4702 119.273V107.273H80.1293V108.688H80.2713C80.3698 108.506 80.5118 108.295 80.6974 108.057C80.883 107.818 81.1406 107.61 81.4702 107.432C81.7997 107.25 82.2353 107.159 82.777 107.159C83.4815 107.159 84.1103 107.337 84.6634 107.693C85.2164 108.049 85.6501 108.562 85.9645 109.233C86.2827 109.903 86.4418 110.71 86.4418 111.653C86.4418 112.597 86.2846 113.405 85.9702 114.08C85.6558 114.75 85.224 115.267 84.6747 115.631C84.1255 115.991 83.4986 116.17 82.794 116.17C82.2637 116.17 81.83 116.081 81.4929 115.903C81.1596 115.725 80.8982 115.517 80.7088 115.278C80.5194 115.04 80.3736 114.828 80.2713 114.642H80.169V119.273H78.4702ZM80.1349 111.636C80.1349 112.25 80.224 112.788 80.402 113.25C80.58 113.712 80.8376 114.074 81.1747 114.335C81.5118 114.593 81.9247 114.722 82.4134 114.722C82.9209 114.722 83.3452 114.587 83.6861 114.318C84.027 114.045 84.2846 113.676 84.4588 113.21C84.6368 112.744 84.7259 112.22 84.7259 111.636C84.7259 111.061 84.6387 110.544 84.4645 110.085C84.294 109.627 84.0365 109.265 83.6918 109C83.3509 108.735 82.9247 108.602 82.4134 108.602C81.9209 108.602 81.5043 108.729 81.1634 108.983C80.8262 109.237 80.5705 109.591 80.3963 110.045C80.2221 110.5 80.1349 111.03 80.1349 111.636ZM89.1222 119.273C88.8684 119.273 88.6373 119.252 88.429 119.21C88.2206 119.172 88.0653 119.131 87.9631 119.085L88.3722 117.693C88.6828 117.777 88.9593 117.813 89.2017 117.801C89.4441 117.79 89.6581 117.699 89.8438 117.528C90.0331 117.358 90.1998 117.08 90.3438 116.693L90.554 116.114L87.3608 107.273H89.179L91.3892 114.045H91.4801L93.6903 107.273H95.5142L91.9176 117.165C91.7509 117.619 91.5388 118.004 91.2812 118.318C91.0237 118.636 90.7169 118.875 90.3608 119.034C90.0047 119.193 89.5919 119.273 89.1222 119.273ZM97.1108 116V107.273H104.23V116H102.565V108.739H98.7642V116H97.1108ZM106.501 116V107.273H113.621V116H111.956V108.739H108.155V116H106.501ZM118.432 116.193C117.879 116.193 117.379 116.091 116.932 115.886C116.485 115.678 116.131 115.377 115.869 114.983C115.612 114.589 115.483 114.106 115.483 113.534C115.483 113.042 115.578 112.636 115.767 112.318C115.956 112 116.212 111.748 116.534 111.562C116.856 111.377 117.216 111.237 117.614 111.142C118.011 111.047 118.417 110.975 118.83 110.926C119.352 110.866 119.777 110.816 120.102 110.778C120.428 110.737 120.665 110.67 120.812 110.58C120.96 110.489 121.034 110.341 121.034 110.136V110.097C121.034 109.6 120.894 109.216 120.614 108.943C120.337 108.67 119.924 108.534 119.375 108.534C118.803 108.534 118.352 108.661 118.023 108.915C117.697 109.165 117.472 109.443 117.347 109.75L115.75 109.386C115.939 108.856 116.216 108.428 116.58 108.102C116.947 107.773 117.369 107.534 117.847 107.386C118.324 107.235 118.826 107.159 119.352 107.159C119.701 107.159 120.07 107.201 120.46 107.284C120.854 107.364 121.222 107.511 121.562 107.727C121.907 107.943 122.189 108.252 122.409 108.653C122.629 109.051 122.739 109.568 122.739 110.205V116H121.08V114.807H121.011C120.902 115.027 120.737 115.242 120.517 115.455C120.297 115.667 120.015 115.843 119.67 115.983C119.326 116.123 118.913 116.193 118.432 116.193ZM118.801 114.83C119.271 114.83 119.672 114.737 120.006 114.551C120.343 114.366 120.598 114.123 120.773 113.824C120.951 113.521 121.04 113.197 121.04 112.852V111.727C120.979 111.788 120.862 111.845 120.688 111.898C120.517 111.947 120.322 111.991 120.102 112.028C119.883 112.062 119.669 112.095 119.46 112.125C119.252 112.152 119.078 112.174 118.938 112.193C118.608 112.235 118.307 112.305 118.034 112.403C117.765 112.502 117.549 112.644 117.386 112.83C117.227 113.011 117.148 113.254 117.148 113.557C117.148 113.977 117.303 114.295 117.614 114.511C117.924 114.723 118.32 114.83 118.801 114.83ZM129.372 116V104.364H133.634C134.459 104.364 135.143 104.5 135.685 104.773C136.226 105.042 136.632 105.407 136.901 105.869C137.17 106.328 137.304 106.845 137.304 107.42C137.304 107.905 137.215 108.314 137.037 108.648C136.859 108.977 136.62 109.242 136.321 109.443C136.026 109.64 135.7 109.784 135.344 109.875V109.989C135.73 110.008 136.107 110.133 136.474 110.364C136.846 110.591 137.152 110.915 137.395 111.335C137.637 111.756 137.759 112.267 137.759 112.869C137.759 113.464 137.618 113.998 137.338 114.472C137.062 114.941 136.634 115.314 136.054 115.591C135.474 115.864 134.734 116 133.832 116H129.372ZM131.128 114.494H133.662C134.503 114.494 135.105 114.331 135.469 114.006C135.832 113.68 136.014 113.273 136.014 112.784C136.014 112.417 135.921 112.08 135.736 111.773C135.55 111.466 135.285 111.222 134.94 111.04C134.599 110.858 134.194 110.767 133.724 110.767H131.128V114.494ZM131.128 109.398H133.48C133.874 109.398 134.228 109.322 134.543 109.17C134.861 109.019 135.113 108.807 135.298 108.534C135.488 108.258 135.582 107.932 135.582 107.557C135.582 107.076 135.414 106.672 135.077 106.347C134.74 106.021 134.223 105.858 133.526 105.858H131.128V109.398ZM146.744 116L142.835 110.784H141.597V116H139.841V104.364H141.597V109.278H142.17L146.568 104.364H148.71L144.057 109.574L148.886 116H146.744ZM153.412 116.176C152.594 116.176 151.88 115.989 151.27 115.614C150.66 115.239 150.187 114.714 149.849 114.04C149.512 113.366 149.344 112.578 149.344 111.676C149.344 110.771 149.512 109.979 149.849 109.301C150.187 108.623 150.66 108.097 151.27 107.722C151.88 107.347 152.594 107.159 153.412 107.159C154.23 107.159 154.944 107.347 155.554 107.722C156.164 108.097 156.637 108.623 156.974 109.301C157.312 109.979 157.48 110.771 157.48 111.676C157.48 112.578 157.312 113.366 156.974 114.04C156.637 114.714 156.164 115.239 155.554 115.614C154.944 115.989 154.23 116.176 153.412 116.176ZM153.418 114.75C153.948 114.75 154.387 114.61 154.736 114.33C155.084 114.049 155.342 113.676 155.509 113.21C155.679 112.744 155.764 112.231 155.764 111.67C155.764 111.114 155.679 110.602 155.509 110.136C155.342 109.667 155.084 109.29 154.736 109.006C154.387 108.722 153.948 108.58 153.418 108.58C152.884 108.58 152.44 108.722 152.088 109.006C151.74 109.29 151.48 109.667 151.31 110.136C151.143 110.602 151.06 111.114 151.06 111.67C151.06 112.231 151.143 112.744 151.31 113.21C151.48 113.676 151.74 114.049 152.088 114.33C152.44 114.61 152.884 114.75 153.418 114.75ZM165.291 110.903V112.375H160.564V110.903H165.291ZM161.041 107.273V116H159.376V107.273H161.041ZM166.479 107.273V116H164.82V107.273H166.479ZM167.669 108.739V107.273H175.033V108.739H172.186V116H170.527V108.739H167.669ZM178.963 116.193C178.41 116.193 177.91 116.091 177.463 115.886C177.016 115.678 176.662 115.377 176.401 114.983C176.143 114.589 176.014 114.106 176.014 113.534C176.014 113.042 176.109 112.636 176.298 112.318C176.488 112 176.743 111.748 177.065 111.562C177.387 111.377 177.747 111.237 178.145 111.142C178.543 111.047 178.948 110.975 179.361 110.926C179.884 110.866 180.308 110.816 180.634 110.778C180.959 110.737 181.196 110.67 181.344 110.58C181.491 110.489 181.565 110.341 181.565 110.136V110.097C181.565 109.6 181.425 109.216 181.145 108.943C180.868 108.67 180.455 108.534 179.906 108.534C179.334 108.534 178.884 108.661 178.554 108.915C178.228 109.165 178.003 109.443 177.878 109.75L176.281 109.386C176.471 108.856 176.747 108.428 177.111 108.102C177.478 107.773 177.901 107.534 178.378 107.386C178.855 107.235 179.357 107.159 179.884 107.159C180.232 107.159 180.601 107.201 180.991 107.284C181.385 107.364 181.753 107.511 182.094 107.727C182.438 107.943 182.721 108.252 182.94 108.653C183.16 109.051 183.27 109.568 183.27 110.205V116H181.611V114.807H181.543C181.433 115.027 181.268 115.242 181.048 115.455C180.829 115.667 180.546 115.843 180.202 115.983C179.857 116.123 179.444 116.193 178.963 116.193ZM179.332 114.83C179.802 114.83 180.204 114.737 180.537 114.551C180.874 114.366 181.13 114.123 181.304 113.824C181.482 113.521 181.571 113.197 181.571 112.852V111.727C181.51 111.788 181.393 111.845 181.219 111.898C181.048 111.947 180.853 111.991 180.634 112.028C180.414 112.062 180.2 112.095 179.991 112.125C179.783 112.152 179.609 112.174 179.469 112.193C179.139 112.235 178.838 112.305 178.565 112.403C178.296 112.502 178.08 112.644 177.918 112.83C177.759 113.011 177.679 113.254 177.679 113.557C177.679 113.977 177.834 114.295 178.145 114.511C178.455 114.723 178.851 114.83 179.332 114.83ZM185.533 116V107.273H187.232V110.932H188.05L190.93 107.273H193.033L189.652 111.517L193.072 116H190.964L188.334 112.511H187.232V116H185.533ZM193.903 108.739V107.273H201.267V108.739H198.42V116H196.761V108.739H193.903ZM206.419 116.176C205.559 116.176 204.819 115.992 204.197 115.625C203.58 115.254 203.103 114.733 202.766 114.062C202.432 113.388 202.266 112.598 202.266 111.693C202.266 110.799 202.432 110.011 202.766 109.33C203.103 108.648 203.572 108.116 204.175 107.733C204.781 107.35 205.489 107.159 206.3 107.159C206.792 107.159 207.269 107.241 207.732 107.403C208.194 107.566 208.608 107.822 208.976 108.17C209.343 108.519 209.633 108.972 209.845 109.528C210.057 110.081 210.163 110.754 210.163 111.545V112.148H203.226V110.875H208.499C208.499 110.428 208.408 110.032 208.226 109.688C208.044 109.339 207.788 109.064 207.459 108.864C207.133 108.663 206.75 108.562 206.311 108.562C205.834 108.562 205.417 108.68 205.061 108.915C204.709 109.146 204.436 109.449 204.243 109.824C204.054 110.195 203.959 110.598 203.959 111.034V112.028C203.959 112.612 204.061 113.108 204.266 113.517C204.474 113.926 204.764 114.239 205.135 114.455C205.506 114.667 205.94 114.773 206.436 114.773C206.758 114.773 207.052 114.727 207.317 114.636C207.582 114.542 207.811 114.402 208.004 114.216C208.197 114.03 208.345 113.801 208.447 113.528L210.055 113.818C209.927 114.292 209.696 114.706 209.362 115.062C209.033 115.415 208.618 115.689 208.118 115.886C207.622 116.08 207.055 116.176 206.419 116.176Z" fill="#0A0A0A"/>
<path d="M240.45 104.016C240.617 103.43 240.45 103 239.657 103H237.03C236.362 103 236.057 103.372 235.889 103.78C235.889 103.78 234.553 107.207 232.661 109.429C232.05 110.075 231.771 110.279 231.438 110.279C231.272 110.279 231.03 110.075 231.03 109.489V104.016C231.03 103.313 230.837 103 230.28 103H226.153C225.736 103 225.484 103.325 225.484 103.635C225.484 104.301 226.431 104.454 226.528 106.33V110.398C226.528 111.289 226.376 111.452 226.04 111.452C225.15 111.452 222.985 108.012 221.7 104.075C221.449 103.31 221.197 103.001 220.526 103.001H217.901C217.15 103.001 217 103.373 217 103.781C217 104.515 217.89 108.145 221.145 112.945C223.315 116.223 226.371 118 229.154 118C230.823 118 231.029 117.606 231.029 116.925V114.447C231.029 113.658 231.188 113.499 231.716 113.499C232.104 113.499 232.772 113.706 234.331 115.285C236.11 117.158 236.405 117.999 237.405 117.999H240.031C240.78 117.999 241.155 117.604 240.94 116.825C240.704 116.05 239.853 114.922 238.725 113.588C238.112 112.826 237.196 112.007 236.917 111.598C236.527 111.07 236.64 110.836 236.917 110.368C236.918 110.369 240.117 105.628 240.45 104.016Z" fill="#0077FF"/>
<path d="M69.3807 150.864H71.375L74.4148 156.153H74.5398L77.5795 150.864H79.5739L75.3523 157.932V162.5H73.6023V157.932L69.3807 150.864ZM83.3338 162.676C82.5156 162.676 81.8016 162.489 81.1918 162.114C80.5819 161.739 80.1084 161.214 79.7713 160.54C79.4342 159.866 79.2656 159.078 79.2656 158.176C79.2656 157.271 79.4342 156.479 79.7713 155.801C80.1084 155.123 80.5819 154.597 81.1918 154.222C81.8016 153.847 82.5156 153.659 83.3338 153.659C84.152 153.659 84.866 153.847 85.4759 154.222C86.0857 154.597 86.5592 155.123 86.8963 155.801C87.2334 156.479 87.402 157.271 87.402 158.176C87.402 159.078 87.2334 159.866 86.8963 160.54C86.5592 161.214 86.0857 161.739 85.4759 162.114C84.866 162.489 84.152 162.676 83.3338 162.676ZM83.3395 161.25C83.8698 161.25 84.3092 161.11 84.6577 160.83C85.0062 160.549 85.2637 160.176 85.4304 159.71C85.6009 159.244 85.6861 158.731 85.6861 158.17C85.6861 157.614 85.6009 157.102 85.4304 156.636C85.2637 156.167 85.0062 155.79 84.6577 155.506C84.3092 155.222 83.8698 155.08 83.3395 155.08C82.8054 155.08 82.3622 155.222 82.0099 155.506C81.6615 155.79 81.402 156.167 81.2315 156.636C81.0649 157.102 80.9815 157.614 80.9815 158.17C80.9815 158.731 81.0649 159.244 81.2315 159.71C81.402 160.176 81.6615 160.549 82.0099 160.83C82.3622 161.11 82.8054 161.25 83.3395 161.25ZM94.8267 158.881V153.773H96.5312V162.5H94.8608V160.989H94.7699C94.5691 161.455 94.2472 161.843 93.804 162.153C93.3646 162.46 92.8172 162.614 92.1619 162.614C91.6013 162.614 91.1051 162.491 90.6733 162.244C90.2453 161.994 89.9081 161.625 89.6619 161.136C89.4195 160.648 89.2983 160.044 89.2983 159.324V153.773H90.9972V159.119C90.9972 159.714 91.1619 160.187 91.4915 160.54C91.821 160.892 92.2491 161.068 92.7756 161.068C93.0938 161.068 93.41 160.989 93.7244 160.83C94.0426 160.67 94.3059 160.43 94.5142 160.108C94.7263 159.786 94.8305 159.377 94.8267 158.881ZM97.5639 152.375V150.864H106.57V152.375H102.939V162.5H101.189V152.375H97.5639ZM112.764 158.881V153.773H114.469V162.5H112.798V160.989H112.707C112.507 161.455 112.185 161.843 111.741 162.153C111.302 162.46 110.755 162.614 110.099 162.614C109.539 162.614 109.043 162.491 108.611 162.244C108.183 161.994 107.846 161.625 107.599 161.136C107.357 160.648 107.236 160.044 107.236 159.324V153.773H108.935V159.119C108.935 159.714 109.099 160.187 109.429 160.54C109.759 160.892 110.187 161.068 110.713 161.068C111.031 161.068 111.348 160.989 111.662 160.83C111.98 160.67 112.243 160.43 112.452 160.108C112.664 159.786 112.768 159.377 112.764 158.881ZM116.888 162.5V150.864H118.587V155.188H118.689C118.787 155.006 118.929 154.795 119.115 154.557C119.301 154.318 119.558 154.11 119.888 153.932C120.217 153.75 120.653 153.659 121.195 153.659C121.899 153.659 122.528 153.837 123.081 154.193C123.634 154.549 124.068 155.062 124.382 155.733C124.7 156.403 124.859 157.21 124.859 158.153C124.859 159.097 124.702 159.905 124.388 160.58C124.073 161.25 123.642 161.767 123.092 162.131C122.543 162.491 121.916 162.67 121.212 162.67C120.681 162.67 120.248 162.581 119.911 162.403C119.577 162.225 119.316 162.017 119.126 161.778C118.937 161.54 118.791 161.328 118.689 161.142H118.547V162.5H116.888ZM118.553 158.136C118.553 158.75 118.642 159.288 118.82 159.75C118.998 160.212 119.255 160.574 119.592 160.835C119.929 161.093 120.342 161.222 120.831 161.222C121.339 161.222 121.763 161.087 122.104 160.818C122.445 160.545 122.702 160.176 122.876 159.71C123.054 159.244 123.143 158.72 123.143 158.136C123.143 157.561 123.056 157.044 122.882 156.585C122.712 156.127 122.454 155.765 122.109 155.5C121.768 155.235 121.342 155.102 120.831 155.102C120.339 155.102 119.922 155.229 119.581 155.483C119.244 155.737 118.988 156.091 118.814 156.545C118.64 157 118.553 157.53 118.553 158.136ZM130.528 162.676C129.669 162.676 128.928 162.492 128.307 162.125C127.689 161.754 127.212 161.233 126.875 160.562C126.542 159.888 126.375 159.098 126.375 158.193C126.375 157.299 126.542 156.511 126.875 155.83C127.212 155.148 127.682 154.616 128.284 154.233C128.89 153.85 129.598 153.659 130.409 153.659C130.902 153.659 131.379 153.741 131.841 153.903C132.303 154.066 132.718 154.322 133.085 154.67C133.453 155.019 133.742 155.472 133.955 156.028C134.167 156.581 134.273 157.254 134.273 158.045V158.648H127.335V157.375H132.608C132.608 156.928 132.517 156.532 132.335 156.188C132.153 155.839 131.898 155.564 131.568 155.364C131.242 155.163 130.86 155.062 130.42 155.062C129.943 155.062 129.527 155.18 129.17 155.415C128.818 155.646 128.545 155.949 128.352 156.324C128.163 156.695 128.068 157.098 128.068 157.534V158.528C128.068 159.112 128.17 159.608 128.375 160.017C128.583 160.426 128.873 160.739 129.244 160.955C129.616 161.167 130.049 161.273 130.545 161.273C130.867 161.273 131.161 161.227 131.426 161.136C131.691 161.042 131.92 160.902 132.114 160.716C132.307 160.53 132.455 160.301 132.557 160.028L134.165 160.318C134.036 160.792 133.805 161.206 133.472 161.562C133.142 161.915 132.727 162.189 132.227 162.386C131.731 162.58 131.165 162.676 130.528 162.676ZM141.3 156.847V158.318H136.141V156.847H141.3ZM143.564 162.5V153.773H145.263V157.432H146.081L148.962 153.773H151.064L147.683 158.017L151.104 162.5H148.996L146.365 159.011H145.263V162.5H143.564ZM154.963 162.693C154.41 162.693 153.91 162.591 153.463 162.386C153.016 162.178 152.662 161.877 152.401 161.483C152.143 161.089 152.014 160.606 152.014 160.034C152.014 159.542 152.109 159.136 152.298 158.818C152.488 158.5 152.743 158.248 153.065 158.062C153.387 157.877 153.747 157.737 154.145 157.642C154.543 157.547 154.948 157.475 155.361 157.426C155.884 157.366 156.308 157.316 156.634 157.278C156.959 157.237 157.196 157.17 157.344 157.08C157.491 156.989 157.565 156.841 157.565 156.636V156.597C157.565 156.1 157.425 155.716 157.145 155.443C156.868 155.17 156.455 155.034 155.906 155.034C155.334 155.034 154.884 155.161 154.554 155.415C154.228 155.665 154.003 155.943 153.878 156.25L152.281 155.886C152.471 155.356 152.747 154.928 153.111 154.602C153.478 154.273 153.901 154.034 154.378 153.886C154.855 153.735 155.357 153.659 155.884 153.659C156.232 153.659 156.601 153.701 156.991 153.784C157.385 153.864 157.753 154.011 158.094 154.227C158.438 154.443 158.721 154.752 158.94 155.153C159.16 155.551 159.27 156.068 159.27 156.705V162.5H157.611V161.307H157.543C157.433 161.527 157.268 161.742 157.048 161.955C156.829 162.167 156.546 162.343 156.202 162.483C155.857 162.623 155.444 162.693 154.963 162.693ZM155.332 161.33C155.802 161.33 156.204 161.237 156.537 161.051C156.874 160.866 157.13 160.623 157.304 160.324C157.482 160.021 157.571 159.697 157.571 159.352V158.227C157.51 158.288 157.393 158.345 157.219 158.398C157.048 158.447 156.853 158.491 156.634 158.528C156.414 158.562 156.2 158.595 155.991 158.625C155.783 158.652 155.609 158.674 155.469 158.693C155.139 158.735 154.838 158.805 154.565 158.903C154.296 159.002 154.08 159.144 153.918 159.33C153.759 159.511 153.679 159.754 153.679 160.057C153.679 160.477 153.834 160.795 154.145 161.011C154.455 161.223 154.851 161.33 155.332 161.33ZM167.447 157.403V158.875H162.72V157.403H167.447ZM163.197 153.773V162.5H161.533V153.773H163.197ZM168.635 153.773V162.5H166.976V153.773H168.635ZM173.447 162.693C172.894 162.693 172.394 162.591 171.947 162.386C171.5 162.178 171.146 161.877 170.885 161.483C170.627 161.089 170.499 160.606 170.499 160.034C170.499 159.542 170.593 159.136 170.783 158.818C170.972 158.5 171.228 158.248 171.55 158.062C171.872 157.877 172.232 157.737 172.629 157.642C173.027 157.547 173.432 157.475 173.845 157.426C174.368 157.366 174.792 157.316 175.118 157.278C175.444 157.237 175.68 157.17 175.828 157.08C175.976 156.989 176.05 156.841 176.05 156.636V156.597C176.05 156.1 175.91 155.716 175.629 155.443C175.353 155.17 174.94 155.034 174.391 155.034C173.819 155.034 173.368 155.161 173.038 155.415C172.713 155.665 172.487 155.943 172.362 156.25L170.766 155.886C170.955 155.356 171.232 154.928 171.595 154.602C171.963 154.273 172.385 154.034 172.862 153.886C173.339 153.735 173.841 153.659 174.368 153.659C174.716 153.659 175.086 153.701 175.476 153.784C175.87 153.864 176.237 154.011 176.578 154.227C176.923 154.443 177.205 154.752 177.425 155.153C177.644 155.551 177.754 156.068 177.754 156.705V162.5H176.095V161.307H176.027C175.917 161.527 175.752 161.742 175.533 161.955C175.313 162.167 175.031 162.343 174.686 162.483C174.341 162.623 173.929 162.693 173.447 162.693ZM173.817 161.33C174.286 161.33 174.688 161.237 175.021 161.051C175.358 160.866 175.614 160.623 175.788 160.324C175.966 160.021 176.055 159.697 176.055 159.352V158.227C175.995 158.288 175.877 158.345 175.703 158.398C175.533 158.447 175.338 158.491 175.118 158.528C174.898 158.562 174.684 158.595 174.476 158.625C174.268 158.652 174.093 158.674 173.953 158.693C173.624 158.735 173.322 158.805 173.05 158.903C172.781 159.002 172.565 159.144 172.402 159.33C172.243 159.511 172.163 159.754 172.163 160.057C172.163 160.477 172.319 160.795 172.629 161.011C172.94 161.223 173.336 161.33 173.817 161.33ZM179.33 162.5L179.324 161.028H179.636C179.879 161.028 180.081 160.977 180.244 160.875C180.411 160.769 180.547 160.591 180.653 160.341C180.759 160.091 180.841 159.746 180.898 159.307C180.955 158.864 180.996 158.307 181.023 157.636L181.176 153.773H187.267V162.5H185.602V155.239H182.75L182.614 158.205C182.58 158.924 182.506 159.553 182.392 160.091C182.282 160.629 182.121 161.078 181.909 161.438C181.697 161.794 181.424 162.061 181.091 162.239C180.758 162.413 180.352 162.5 179.875 162.5H179.33Z" fill="#0A0A0A"/>
<g clip-path="url(#clip1_498_3857)">
<path d="M204.2 160.429L210.168 157L204.2 153.571V160.429ZM217.494 151.48C217.643 152.017 217.747 152.737 217.816 153.651C217.896 154.566 217.931 155.354 217.931 156.04L218 157C218 159.503 217.816 161.343 217.494 162.52C217.206 163.549 216.539 164.211 215.504 164.497C214.964 164.646 213.975 164.749 212.457 164.817C210.962 164.897 209.594 164.931 208.328 164.931L206.5 165C201.681 165 198.68 164.817 197.496 164.497C196.461 164.211 195.794 163.549 195.506 162.52C195.357 161.983 195.253 161.263 195.184 160.349C195.104 159.434 195.069 158.646 195.069 157.96L195 157C195 154.497 195.184 152.657 195.506 151.48C195.794 150.451 196.461 149.789 197.496 149.503C198.036 149.354 199.025 149.251 200.543 149.183C202.038 149.103 203.406 149.069 204.671 149.069L206.5 149C211.319 149 214.32 149.183 215.504 149.503C216.539 149.789 217.206 150.451 217.494 151.48Z" fill="#FF0000"/>
</g>
</g>
<path d="M49.5 48C49.5 44.9624 51.9624 42.5 55 42.5H265.5V183.5H55C51.9624 183.5 49.5 181.038 49.5 178V48Z" stroke="#F0F0F0"/>
</g>
<path d="M20.5 75C20.5 71.4101 23.4101 68.5 27 68.5H48.5V158.5H27C23.4101 158.5 20.5 155.59 20.5 152V75Z" fill="white"/>
<path d="M20.5 75C20.5 71.4101 23.4101 68.5 27 68.5H48.5V158.5H27C23.4101 158.5 20.5 155.59 20.5 152V75Z" stroke="#F0F0F0"/>
<path d="M40 113.004C40 113.206 39.9183 113.391 39.7628 113.536L33.2843 119.79C33.137 119.927 32.9571 120 32.7444 120C32.3272 120 32 119.686 32 119.267C32 119.065 32.0818 118.88 32.2127 118.743L38.1677 113.004L32.2127 107.265C32.0818 107.128 32 106.951 32 106.742C32 106.322 32.3272 106.008 32.7444 106.008C32.9571 106.008 33.137 106.081 33.2843 106.226L39.7628 112.472C39.9183 112.625 40 112.803 40 113.004Z" fill="#769CFF"/>
<defs>
<filter id="filter0_dd_498_3857" x="-113" y="-89" width="541" height="466" filterUnits="userSpaceOnUse" color-interpolation-filters="sRGB">
<feFlood flood-opacity="0" result="BackgroundImageFix"/>
<feColorMatrix in="SourceAlpha" type="matrix" values="0 0 0 0 0 0 0 0 0 0 0 0 0 0 0 0 0 0 127 0" result="hardAlpha"/>
<feOffset dy="6.92426"/>
<feGaussianBlur stdDeviation="32.9332"/>
<feColorMatrix type="matrix" values="0 0 0 0 0.407843 0 0 0 0 0.407843 0 0 0 0 0.407843 0 0 0 0.0413125 0"/>
<feBlend mode="normal" in2="BackgroundImageFix" result="effect1_dropShadow_498_3857"/>
<feColorMatrix in="SourceAlpha" type="matrix" values="0 0 0 0 0 0 0 0 0 0 0 0 0 0 0 0 0 0 127 0" result="hardAlpha"/>
<feOffset dy="31"/>
<feGaussianBlur stdDeviation="81"/>
<feColorMatrix type="matrix" values="0 0 0 0 0.407843 0 0 0 0 0.407843 0 0 0 0 0.407843 0 0 0 0.07 0"/>
<feBlend mode="normal" in2="effect1_dropShadow_498_3857" result="effect2_dropShadow_498_3857"/>
<feBlend mode="normal" in="SourceGraphic" in2="effect2_dropShadow_498_3857" result="shape"/>
</filter>
<clipPath id="clip0_498_3857">
<path d="M49 48C49 44.6863 51.6863 42 55 42H266V184H55C51.6863 184 49 181.314 49 178V48Z" fill="white"/>
</clipPath>
<clipPath id="clip1_498_3857">
<rect width="24" height="24" fill="white" transform="translate(195 145)"/>
</clipPath>
</defs>
</svg>
