<svg width="15" height="13" viewBox="0 0 15 13" fill="none" xmlns="http://www.w3.org/2000/svg">
<path fill-rule="evenodd" clip-rule="evenodd" d="M8.26498 13H10.7078C12.1241 13 13.3586 12.0978 13.7021 10.8118L14.9531 6.12811C15.1966 5.21645 14.46 4.33333 13.456 4.33333H9.64534L10.6537 2.71532C11.4039 1.51164 10.4763 0 8.98746 0H8.10209L5.11726 4.88903C5.05064 4.99816 5.01559 5.12167 5.01559 5.24735V11.169C5.01559 11.4105 5.14453 11.636 5.3592 11.77L6.5529 12.5148C7.05991 12.8312 7.65563 13 8.26498 13ZM1.54325 4.33301H2.31487C3.16719 4.33301 3.85812 4.97971 3.85812 5.77745V10.833C3.85812 11.6308 3.16719 12.2775 2.31487 12.2775H1.54325C0.690936 12.2775 0 11.6308 0 10.833V5.77745C0 4.97971 0.690936 4.33301 1.54325 4.33301Z" fill="#769CFF"/>
</svg>
