<svg width="24" height="15" viewBox="0 0 24 15" fill="none" xmlns="http://www.w3.org/2000/svg">
<path d="M23.4497 1.0158C23.6174 0.42976 23.4497 0 22.6568 0H20.0303C19.362 0 19.0566 0.371787 18.8889 0.780122C18.8889 0.780122 17.5535 4.20686 15.6611 6.42875C15.0503 7.07528 14.7712 7.27945 14.4382 7.27945C14.2718 7.27945 14.0298 7.07528 14.0298 6.48925V1.0158C14.0298 0.312553 13.837 0 13.2801 0H9.15281C8.73601 0 8.48449 0.325156 8.48449 0.635188C8.48449 1.30062 9.43067 1.45438 9.52769 3.32969V7.39792C9.52769 8.28894 9.37558 8.45152 9.04022 8.45152C8.15033 8.45152 5.9849 5.01218 4.69977 1.07503C4.44945 0.310032 4.19673 0.0012608 3.52602 0.0012608H0.900669C0.149712 0.0012608 0 0.373047 0 0.781382C0 1.51487 0.889889 5.14451 4.14523 9.94497C6.31546 13.223 9.37079 15 12.1542 15C13.8226 15 14.0286 14.6055 14.0286 13.925V11.4472C14.0286 10.6583 14.1879 10.4995 14.7161 10.4995C15.1042 10.4995 15.7725 10.7062 17.3307 12.2853C19.1105 14.1581 19.4051 14.9987 20.4052 14.9987H23.0305C23.7803 14.9987 24.1552 14.6043 23.9396 13.8254C23.7036 13.0503 22.8533 11.9224 21.725 10.5877C21.1118 9.8265 20.1956 9.00731 19.9165 8.59771C19.5273 8.06965 19.6398 7.8365 19.9165 7.36767C19.9177 7.36893 23.1168 2.62771 23.4497 1.0158Z" fill="#0077FF"/>
</svg>
