<svg width="65" height="45" viewBox="0 0 65 45" fill="none" xmlns="http://www.w3.org/2000/svg">
<path d="M26 32.1429L42.8675 22.5L26 12.8571V32.1429ZM63.57 6.975C63.9925 8.48571 64.285 10.5107 64.48 13.0821C64.7075 15.6536 64.805 17.8714 64.805 19.8L65 22.5C65 29.5393 64.48 34.7143 63.57 38.025C62.7575 40.9179 60.8725 42.7821 57.9475 43.5857C56.42 44.0036 53.625 44.2929 49.335 44.4857C45.11 44.7107 41.2425 44.8071 37.6675 44.8071L32.5 45C18.8825 45 10.4 44.4857 7.0525 43.5857C4.1275 42.7821 2.2425 40.9179 1.43 38.025C1.0075 36.5143 0.715 34.4893 0.52 31.9179C0.2925 29.3464 0.195 27.1286 0.195 25.2L0 22.5C0 15.4607 0.52 10.2857 1.43 6.975C2.2425 4.08214 4.1275 2.21786 7.0525 1.41429C8.58 0.996429 11.375 0.707142 15.665 0.514285C19.89 0.289285 23.7575 0.192857 27.3325 0.192857L32.5 0C46.1175 0 54.6 0.514286 57.9475 1.41429C60.8725 2.21786 62.7575 4.08214 63.57 6.975Z" fill="#FF0000"/>
</svg>
